<?xml version="1.0" encoding="UTF-8" standalone="no"?>
<!-- Uploaded to: SVG Repo, www.svgrepo.com, Generator: SVG Repo Mixer Tools -->

<svg
   fill="#000000"
   height="800"
   width="800"
   version="1.1"
   id="Capa_1"
   viewBox="0 0 471.701 471.701"
   xml:space="preserve"
   xmlns="http://www.w3.org/2000/svg"
   xmlns:svg="http://www.w3.org/2000/svg"><defs
   id="defs1" />
<g
   id="g1"
   transform="matrix(0.90148864,0,0,0.90148864,23.234058,23.234058)">
	<path
   id="path1"
   style="stroke:#ffffff;stroke-width:1.23586;stroke-dasharray:none;stroke-opacity:1"
   d="m 130.40039,3.8964844 c -41.210347,0 -80.471098,16.2796926 -109.597656,45.4062496 -29.1996994,29.1997 -45.512796,68.509626 -45.404296,109.832036 0.0089,41.3263 16.4500223,80.51057 45.603515,109.66406 L 208.80273,456.59961 c 7.28434,7.28433 16.7439,11.20703 26.89844,11.20703 9.67396,0 19.39191,-3.60089 26.89844,-11.10742 l -0.0312,0.0332 188.19922,-187.5 a 24.608297,24.608297 0 0 0 0.0312,-0.0332 C 479.99908,239.99897 496.29589,200.71408 496.30469,159.43359 496.41312,118.15797 480.22262,78.826131 451,49.603516 421.79186,20.395377 382.54668,4.1953125 341.30078,4.1953125 c -39.25255,0 -76.59499,14.8752825 -105.28906,41.4199215 C 207.28398,18.932543 169.79778,3.8964844 130.40039,3.8964844 Z m 0,76.3105466 c 21.30403,0 40.92923,8.120638 56.00195,23.193359 L 209.00195,126 c 14.60304,14.60303 39.29541,14.60303 53.89844,0 a 24.608297,24.608297 0 0 0 0.002,0 l 22.39649,-22.40039 c 15.0726,-15.072607 34.72149,-23.19336 55.90234,-23.19336 21.16999,0 40.71761,8.100988 55.82227,23.11719 15.05864,15.07013 23.07226,34.52467 23.07226,55.87695 a 24.608297,24.608297 0 0 0 0,0.0879 c 0.0767,21.2386 -7.98526,40.69358 -23.07422,55.79297 L 235.73437,375.9375 74.798828,215.00195 c -15.102195,-15.10219 -23.191406,-34.5952 -23.191406,-55.90039 0,-21.36417 8.025909,-40.81348 23.046875,-55.75781 a 24.608297,24.608297 0 0 0 0.04492,-0.0449 C 89.678233,88.319814 109.21861,80.207031 130.40039,80.207031 Z" />
</g>
</svg>
