<?xml version="1.0" encoding="UTF-8" standalone="no"?>
<!-- Uploaded to: SVG Repo, www.svgrepo.com, Generator: SVG Repo Mixer Tools -->

<svg
   fill="#000000"
   height="800"
   width="800"
   version="1.1"
   id="Capa_1"
   viewBox="0 0 471.701 471.701"
   xml:space="preserve"
   xmlns="http://www.w3.org/2000/svg"
   xmlns:svg="http://www.w3.org/2000/svg"><defs
   id="defs1" />
<g
   id="g1">
	<path
   id="path1"
   style="stroke:#ffffff;stroke-width:1.23586;stroke-dasharray:none;stroke-opacity:1"
   d="m 130.40039,10.873047 c -39.392628,0 -76.821055,15.520274 -104.664062,43.363281 C -2.1877099,82.160366 -17.731421,119.62531 -17.625,159.12695 c 0.0068,39.50341 15.6702789,76.84802 43.560547,104.73828 L 213.73633,451.66602 c 5.95604,5.95604 13.72562,9.16406 21.96484,9.16406 7.89492,0 15.84961,-2.94922 21.96485,-9.06446 L 445.8418,264.28906 a 17.63037,17.63037 0 0 0 0.0234,-0.0234 C 473.78901,236.34185 489.32141,198.89636 489.32812,159.42578 489.4345,119.95766 474.00686,82.477568 446.06641,54.537109 418.13659,26.607298 380.74723,11.171875 341.30078,11.171875 c -39.48,0 -76.93542,15.535032 -104.86523,43.464844 a 17.63037,17.63037 0 0 0 -0.002,0 L 236,55.070312 235.36523,54.435547 c -27.93014,-27.93014 -65.45196,-43.5625 -104.96484,-43.5625 z m 0,62.357422 c 23.11767,0 44.57907,8.879852 60.93555,25.236328 l 22.59961,22.599613 c 11.96506,11.96506 32.06618,11.96506 44.03125,0 a 17.63037,17.63037 0 0 0 0.002,0 l 22.39648,-22.400394 c 16.3564,-16.356394 37.83488,-25.236328 60.83594,-25.236329 22.99813,0 44.37894,8.869803 60.75977,25.164063 0.002,0.002 0.004,0.0039 0.006,0.0059 16.33599,16.352611 25.10547,37.656211 25.10547,60.800781 a 17.63037,17.63037 0 0 0 0,0.0645 c 0.0833,23.06804 -8.75278,44.37507 -25.11719,60.75 L 235.72461,385.79492 69.865234,219.93555 c -16.377592,-16.3776 -25.234375,-37.71549 -25.234375,-60.83399 0,-23.16076 8.784119,-44.46699 25.103516,-60.703123 a 17.63037,17.63037 0 0 0 0.03125,-0.0332 C 86.02661,82.10425 107.39866,73.230469 130.40039,73.230469 Z"
   transform="matrix(0.9240879,0,0,0.9240879,17.903988,17.903988)" />
</g>
</svg>
